<?xml version="1.0" standalone="no"?><!DOCTYPE svg PUBLIC "-//W3C//DTD SVG 1.1//EN" "http://www.w3.org/Graphics/SVG/1.1/DTD/svg11.dtd"><svg class="icon" width="200px" height="200.00px" viewBox="0 0 1024 1024" version="1.1" xmlns="http://www.w3.org/2000/svg"><path d="M590.769231 157.538462a78.769231 78.769231 0 0 1 78.769231 78.76923v39.384616a78.769231 78.769231 0 0 1-78.769231 78.76923h-157.538462a78.769231 78.769231 0 0 1-78.769231-78.76923V236.307692a78.769231 78.769231 0 0 1 78.769231-78.76923h157.538462z m0 78.76923h-157.538462v39.384616h157.538462V236.307692z" fill="#0E102B" /><path d="M354.343385 236.307692a39.384615 39.384615 0 0 1 4.608 78.493539L354.343385 315.076923H275.692308a39.384615 39.384615 0 0 0-39.108923 34.776615L236.307692 354.461538v393.846154a39.384615 39.384615 0 0 0 34.776616 39.108923L275.692308 787.692308h472.615384a39.384615 39.384615 0 0 0 39.108923-34.776616L787.692308 748.307692V354.461538a39.384615 39.384615 0 0 0-34.776616-39.108923L748.307692 315.076923h-78.099692a39.384615 39.384615 0 0 1-4.608-78.493538L670.208 236.307692H748.307692a118.153846 118.153846 0 0 1 117.956923 111.222154L866.461538 354.461538v393.846154a118.153846 118.153846 0 0 1-111.222153 117.956923L748.307692 866.461538H275.692308a118.153846 118.153846 0 0 1-117.956923-111.222153L157.538462 748.307692V354.461538a118.153846 118.153846 0 0 1 111.222153-117.956923L275.692308 236.307692h78.651077z" fill="#0E102B" /><path d="M447.527385 526.454154l78.493538 65.851077a34.146462 34.146462 0 0 1-43.913846 52.342154l-78.493539-65.890462a34.146462 34.146462 0 1 1 43.913847-52.302769z" fill="#0E102B" /><path d="M684.268308 458.200615a34.146462 34.146462 0 0 1-1.693539 48.285539l-149.858461 139.776a34.146462 34.146462 0 0 1-46.592-49.979077l149.897846-139.776a34.146462 34.146462 0 0 1 48.246154 1.693538z" fill="#0E102B" /></svg>