<?xml version="1.0" standalone="no"?><!DOCTYPE svg PUBLIC "-//W3C//DTD SVG 1.1//EN" "http://www.w3.org/Graphics/SVG/1.1/DTD/svg11.dtd"><svg class="icon" width="200px" height="200.00px" viewBox="0 0 1024 1024" version="1.1" xmlns="http://www.w3.org/2000/svg"><path d="M393.846154 157.538462a78.769231 78.769231 0 0 1 78.769231 78.76923v157.538462a78.769231 78.769231 0 0 1-78.769231 78.769231H236.307692a78.769231 78.769231 0 0 1-78.76923-78.769231V236.307692a78.769231 78.769231 0 0 1 78.76923-78.76923h157.538462z m0 78.76923H236.307692v157.538462h157.538462V236.307692zM393.846154 551.384615a78.769231 78.769231 0 0 1 78.769231 78.769231v157.538462a78.769231 78.769231 0 0 1-78.769231 78.76923H236.307692a78.769231 78.769231 0 0 1-78.76923-78.76923v-157.538462a78.769231 78.769231 0 0 1 78.76923-78.769231h157.538462z m0 78.769231H236.307692v157.538462h157.538462v-157.538462zM787.692308 551.384615a78.769231 78.769231 0 0 1 78.76923 78.769231v157.538462a78.769231 78.769231 0 0 1-78.76923 78.76923h-157.538462a78.769231 78.769231 0 0 1-78.769231-78.76923v-157.538462a78.769231 78.769231 0 0 1 78.769231-78.769231h157.538462z m0 78.769231h-157.538462v157.538462h157.538462v-157.538462zM653.233231 147.968a78.769231 78.769231 0 0 1 111.379692 0l111.419077 111.419077a78.769231 78.769231 0 0 1 0 111.379692l-111.419077 111.419077a78.769231 78.769231 0 0 1-111.379692 0l-111.419077-111.419077a78.769231 78.769231 0 0 1 0-111.379692l111.419077-111.419077zM708.923077 203.697231L597.543385 315.076923 708.923077 426.456615 820.302769 315.076923 708.923077 203.697231z" fill="#0E102B" /></svg>