<?xml version="1.0" standalone="no"?><!DOCTYPE svg PUBLIC "-//W3C//DTD SVG 1.1//EN" "http://www.w3.org/Graphics/SVG/1.1/DTD/svg11.dtd"><svg class="icon" width="200px" height="200.00px" viewBox="0 0 1024 1024" version="1.1" xmlns="http://www.w3.org/2000/svg"><path d="M748.307692 157.538462a78.769231 78.769231 0 0 1 78.769231 78.76923v551.384616a78.769231 78.769231 0 0 1-78.769231 78.76923h-354.461538a78.769231 78.769231 0 0 1-78.769231-78.76923V236.307692a78.769231 78.769231 0 0 1 78.769231-78.76923h354.461538z m0 78.76923h-354.461538v551.384616h354.461538V236.307692z" fill="#0E102B" /><path d="M393.846154 236.307692v630.153846H275.692308a78.769231 78.769231 0 0 1-78.769231-78.76923V315.076923a78.769231 78.769231 0 0 1 78.769231-78.769231h118.153846zM315.076923 787.692308V315.076923H275.692308v472.615385h39.384615zM630.153846 315.076923a39.384615 39.384615 0 0 1 0 78.769231h-118.153846a39.384615 39.384615 0 0 1 0-78.769231h118.153846zM630.153846 472.615385a39.384615 39.384615 0 0 1 0 78.76923h-118.153846a39.384615 39.384615 0 0 1 0-78.76923h118.153846zM630.153846 630.153846a39.384615 39.384615 0 0 1 0 78.769231h-118.153846a39.384615 39.384615 0 0 1 0-78.769231h118.153846z" fill="#0E102B" /></svg>