<?xml version="1.0" standalone="no"?><!DOCTYPE svg PUBLIC "-//W3C//DTD SVG 1.1//EN" "http://www.w3.org/Graphics/SVG/1.1/DTD/svg11.dtd"><svg class="icon" width="200px" height="200.00px" viewBox="0 0 1024 1024" version="1.1" xmlns="http://www.w3.org/2000/svg"><path d="M512 157.538462a196.923077 196.923077 0 1 1 0 393.846153 196.923077 196.923077 0 0 1 0-393.846153z m0 78.76923a118.153846 118.153846 0 1 0 0 236.307693 118.153846 118.153846 0 0 0 0-236.307693z" fill="#0E102B" /><path d="M314.525538 542.011077c78.257231-55.926154 152.615385-79.753846 222.523077-68.923077a39.384615 39.384615 0 1 1-12.051692 77.824c-47.064615-7.286154-101.809231 10.24-164.706461 55.217231-59.076923 42.220308-87.433846 109.095385-84.598154 205.508923a39.384615 39.384615 0 1 1-78.769231 2.284308c-3.544615-121.068308 35.524923-213.307077 117.602461-271.911385zM748.307692 708.923077a39.384615 39.384615 0 1 1 0 78.769231h-196.923077a39.384615 39.384615 0 0 1 0-78.769231h196.923077z" fill="#0E102B" /><path d="M689.230769 846.769231a39.384615 39.384615 0 1 1-78.769231 0v-196.923077a39.384615 39.384615 0 0 1 78.769231 0v196.923077z" fill="#0E102B" /></svg>