<?xml version="1.0" standalone="no"?><!DOCTYPE svg PUBLIC "-//W3C//DTD SVG 1.1//EN" "http://www.w3.org/Graphics/SVG/1.1/DTD/svg11.dtd"><svg class="icon" width="200px" height="200.00px" viewBox="0 0 1024 1024" version="1.1" xmlns="http://www.w3.org/2000/svg"><path d="M669.065846 562.648615a76.091077 76.091077 0 0 1 79.714462 0c24.536615 15.044923 38.912 42.614154 37.29723 71.68v51.751385h21.937231c10.594462 0 19.062154 8.704 19.062154 19.377231v141.627077a19.298462 19.298462 0 0 1-19.062154 19.37723h-198.183384a19.219692 19.219692 0 0 1-19.062154-19.37723v-141.627077c0-10.633846 8.467692-19.377231 19.062154-19.377231h21.93723v-51.751385a78.966154 78.966154 0 0 1 37.297231-71.68zM708.923077 708.923077c-18.235077 0-34.107077 11.460923-38.321231 27.648-4.214154 16.226462 4.332308 33.004308 20.637539 40.526769V823.138462c0 1.063385 0.393846 2.048 1.181538 2.756923 0.866462 0.787692 1.929846 1.181538 2.993231 1.181538h25.993846c1.220923 0 2.284308-0.512 3.072-1.181538a3.741538 3.741538 0 0 0 1.299692-2.756923v-46.08h0.827077c16.305231-7.483077 24.812308-24.260923 20.637539-40.487385-4.214154-16.187077-20.086154-27.648-38.321231-27.648z m0-118.153846c-21.779692 0-39.384615 17.211077-39.384615 38.439384V669.538462h78.76923v-40.329847A38.912 38.912 0 0 0 708.923077 590.769231zM512 157.538462a196.923077 196.923077 0 1 1 0 393.846153 196.923077 196.923077 0 0 1 0-393.846153z m0 78.76923a118.153846 118.153846 0 1 0 0 236.307693 118.153846 118.153846 0 0 0 0-236.307693z" fill="#0E102B" /><path d="M314.525538 542.011077c78.257231-55.926154 152.615385-79.753846 222.523077-68.923077a39.384615 39.384615 0 0 1-12.051692 77.824c-47.064615-7.286154-101.809231 10.24-164.706461 55.217231-59.076923 42.220308-87.433846 109.095385-84.598154 205.508923a39.384615 39.384615 0 1 1-78.769231 2.284308c-3.544615-121.068308 35.524923-213.307077 117.602461-271.911385z" fill="#0E102B" /></svg>