<?xml version="1.0" standalone="no"?><!DOCTYPE svg PUBLIC "-//W3C//DTD SVG 1.1//EN" "http://www.w3.org/Graphics/SVG/1.1/DTD/svg11.dtd"><svg class="icon" width="200px" height="200.00px" viewBox="0 0 1024 1024" version="1.1" xmlns="http://www.w3.org/2000/svg"><path d="M864.019692 517.986462h-358.006154v-358.006154a8.034462 8.034462 0 0 0-7.995076-7.995077h-25.993847a398.454154 398.454154 0 0 0-282.820923 117.129846 398.178462 398.178462 0 0 0-85.700923 127.094154c-20.873846 49.388308-31.507692 101.809231-31.507692 155.805538a398.454154 398.454154 0 0 0 117.090461 282.781539 398.178462 398.178462 0 0 0 127.133539 85.700923c49.388308 20.873846 101.769846 31.507692 155.766154 31.507692a398.454154 398.454154 0 0 0 282.781538-117.090461 398.178462 398.178462 0 0 0 85.740308-127.133539c20.873846-49.388308 31.507692-101.769846 31.507692-155.766154v-25.993846a8.034462 8.034462 0 0 0-7.995077-8.034461z m-158.326154 269.784615a331.618462 331.618462 0 0 1-235.283692 96.216615 329.846154 329.846154 0 0 1-233.196308-97.20123 329.846154 329.846154 0 0 1-97.20123-234.771693c0-88.733538 34.500923-172.110769 97.20123-234.811077a329.097846 329.097846 0 0 1 200.78277-95.507692v364.307692h364.307692a329.294769 329.294769 0 0 1-96.610462 201.80677z m246.311385-325.356308l-2.599385-28.199384a397.784615 397.784615 0 0 0-115.2-244.578462 399.399385 399.399385 0 0 0-245.208615-115.003077l-28.278154-2.638769a7.955692 7.955692 0 0 0-8.704 7.876923v384.118154c0 4.411077 3.584 7.995077 7.995077 7.995077l384-0.984616c4.726154 0 8.388923-4.017231 7.995077-8.585846z m-332.209231-58.210461V147.613538a332.248615 332.248615 0 0 1 166.4 89.796924 330.161231 330.161231 0 0 1 89.993846 166.084923l-256.393846 0.708923z" fill="#000000" /></svg>