<?xml version="1.0" standalone="no"?><!DOCTYPE svg PUBLIC "-//W3C//DTD SVG 1.1//EN" "http://www.w3.org/Graphics/SVG/1.1/DTD/svg11.dtd"><svg class="icon" width="200px" height="200.00px" viewBox="0 0 1024 1024" version="1.1" xmlns="http://www.w3.org/2000/svg"><path d="M787.692308 157.538462a78.769231 78.769231 0 0 1 78.76923 78.76923v393.846154a78.769231 78.769231 0 0 1-78.76923 78.769231H236.307692a78.769231 78.769231 0 0 1-78.76923-78.769231V236.307692a78.769231 78.769231 0 0 1 78.76923-78.76923h551.384616z m0 78.76923H236.307692v393.846154h551.384616V236.307692z" fill="#0E102B" /><path d="M551.384615 669.538462v118.153846h-78.76923v-118.153846zM472.615385 315.076923a39.384615 39.384615 0 0 1 0 78.769231H354.461538a39.384615 39.384615 0 1 1 0-78.769231h118.153847zM590.769231 472.615385a39.384615 39.384615 0 0 1 0 78.76923H354.461538a39.384615 39.384615 0 0 1 0-78.76923h236.307693zM708.923077 787.692308a39.384615 39.384615 0 0 1 0 78.76923H315.076923a39.384615 39.384615 0 0 1 0-78.76923h393.846154z" fill="#0E102B" /></svg>