<?xml version="1.0" standalone="no"?><!DOCTYPE svg PUBLIC "-//W3C//DTD SVG 1.1//EN" "http://www.w3.org/Graphics/SVG/1.1/DTD/svg11.dtd"><svg class="icon" width="200px" height="200.00px" viewBox="0 0 1024 1024" version="1.1" xmlns="http://www.w3.org/2000/svg"><path d="M571.076923 157.538462a295.384615 295.384615 0 0 1 0 590.76923h-116.499692l-172.032 95.389539a39.384615 39.384615 0 0 1-58.407385-36.470154l8.231385-157.814154A295.384615 295.384615 0 0 1 452.923077 157.538462h118.153846z m0 78.76923h-118.153846a216.615385 216.615385 0 0 0-168.566154 352.649846l6.813539 8.034462 19.849846 56.516923-4.529231 86.843077 109.883077-60.928 38.203077-9.885538H571.076923a216.615385 216.615385 0 0 0 8.704-433.073231L571.076923 236.307692z" fill="#0E102B" /><path d="M315.076923 354.461538m39.384615 0l157.538462 0q39.384615 0 39.384615 39.384616l0 0q0 39.384615-39.384615 39.384615l-157.538462 0q-39.384615 0-39.384615-39.384615l0 0q0-39.384615 39.384615-39.384616Z" fill="#0E102B" /><path d="M669.538462 472.615385a39.384615 39.384615 0 0 1 0 78.76923h-236.307693a39.384615 39.384615 0 0 1 0-78.76923h236.307693z" fill="#0E102B" /></svg>