<?xml version="1.0" standalone="no"?><!DOCTYPE svg PUBLIC "-//W3C//DTD SVG 1.1//EN" "http://www.w3.org/Graphics/SVG/1.1/DTD/svg11.dtd"><svg class="icon" width="200px" height="200.00px" viewBox="0 0 1024 1024" version="1.1" xmlns="http://www.w3.org/2000/svg"><path d="M787.692308 157.538462a78.769231 78.769231 0 0 1 78.76923 78.76923v187.076923a88.615385 88.615385 0 1 0 0 177.23077V787.692308a78.769231 78.769231 0 0 1-78.76923 78.76923H236.307692a78.769231 78.769231 0 0 1-78.76923-78.76923v-187.076923a88.615385 88.615385 0 1 0 0-177.23077V236.307692a78.769231 78.769231 0 0 1 78.76923-78.76923h551.384616z m0 78.76923H236.307692v128l3.544616 1.890462a167.384615 167.384615 0 0 1 84.873846 137.688615L324.923077 512c0 62.542769-34.264615 117.051077-85.070769 145.801846l-3.544616 1.851077V787.692308h551.384616v-128.039385l-3.544616-1.851077a167.384615 167.384615 0 0 1-84.873846-137.688615L699.076923 512c0-62.542769 34.264615-117.051077 85.070769-145.801846L787.692308 364.307692V236.307692z" fill="#0E102B" /><path d="M479.389538 338.550154L512 380.258462l32.610462-41.708308a39.384615 39.384615 0 0 1 64.866461 44.425846l-2.796308 4.096L570.564923 433.230769H590.769231a39.384615 39.384615 0 0 1 0 78.769231h-39.424v39.384615H590.769231a39.384615 39.384615 0 0 1 0 78.769231h-39.424L551.384615 708.923077a39.384615 39.384615 0 0 1-78.76923 0l-0.039385-78.769231H433.230769a39.384615 39.384615 0 0 1 0-78.769231h39.345231v-39.384615H433.230769a39.384615 39.384615 0 0 1 0-78.769231h20.164923l-36.076307-46.158769a39.384615 39.384615 0 1 1 62.070153-48.521846z" fill="#0E102B" /></svg>