<?xml version="1.0" standalone="no"?><!DOCTYPE svg PUBLIC "-//W3C//DTD SVG 1.1//EN" "http://www.w3.org/Graphics/SVG/1.1/DTD/svg11.dtd"><svg class="icon" width="200px" height="200.00px" viewBox="0 0 1024 1024" version="1.1" xmlns="http://www.w3.org/2000/svg"><path d="M410.496 600.224l45.28 45.28L365.248 736l90.528 90.496-45.28 45.28L320 781.248l-90.496 90.528-45.28-45.28L274.752 736l-90.528-90.496 45.28-45.28L320 690.752l90.496-90.528zM864 768v64h-288v-64h288z m0-128v64h-288v-64h288zM352 160v128h128v64h-128v128H288v-128H160V288h128V160h64z m512 128v64h-288V288h288z" fill="#383F4A" /></svg>