<?xml version="1.0" standalone="no"?><!DOCTYPE svg PUBLIC "-//W3C//DTD SVG 1.1//EN" "http://www.w3.org/Graphics/SVG/1.1/DTD/svg11.dtd"><svg class="icon" width="200px" height="200.00px" viewBox="0 0 1024 1024" version="1.1" xmlns="http://www.w3.org/2000/svg"><path d="M672 96v320h-128v96h320v160h96v256h-256v-256h96v-96h-256v96h96v256h-256v-256h96v-96H224v96h96v256H64v-256h96v-160h320v-96h-128V96h320zM256 736H128v128h128v-128z m640 0h-128v128h128v-128z m-320 0h-128v128h128v-128z m32-576h-192v192h192V160z" fill="#383F4A" /></svg>