<?xml version="1.0" standalone="no"?><!DOCTYPE svg PUBLIC "-//W3C//DTD SVG 1.1//EN" "http://www.w3.org/Graphics/SVG/1.1/DTD/svg11.dtd"><svg class="icon" width="200px" height="200.00px" viewBox="0 0 1024 1024" version="1.1" xmlns="http://www.w3.org/2000/svg"><path d="M256 63.936V192a64 64 0 0 0 56.512 63.552L320 256h320a64 64 0 0 0 64-64V63.936L768 64a96 96 0 0 1 96 96v328.064a256 256 0 0 0-187.968 472L192 960a96 96 0 0 1-96-96v-704A96 96 0 0 1 192 64l64-0.064zM800 544a192 192 0 1 1 0 384 192 192 0 0 1 0-384zM704 704a32 32 0 1 0 0 64 32 32 0 0 0 0-64z m96 0a32 32 0 1 0 0 64 32 32 0 0 0 0-64z m96 0a32 32 0 1 0 0 64 32 32 0 0 0 0-64zM480 544h-256V640h256V544z m192-192h-448V448h448V352zM608 64v96h-256V64h256z" fill="#51535F" /></svg>