<?xml version="1.0" standalone="no"?><!DOCTYPE svg PUBLIC "-//W3C//DTD SVG 1.1//EN" "http://www.w3.org/Graphics/SVG/1.1/DTD/svg11.dtd"><svg class="icon" width="200px" height="200.00px" viewBox="0 0 1024 1024" version="1.1" xmlns="http://www.w3.org/2000/svg"><path d="M576 592a144 144 0 0 1 144 144V832a48 48 0 0 1-48 48h-576A48 48 0 0 1 48 832v-96A144 144 0 0 1 192 592h384z m157.312 0H832a144 144 0 0 1 144 144V832a48 48 0 0 1-48 48H832V768c0-78.72-40.576-146.368-98.688-176zM384 112a208 208 0 1 1 0 416 208 208 0 0 1 0-416z m256 0a208 208 0 1 1-38.08 412.544A255.36 255.36 0 0 0 704 320a255.616 255.616 0 0 0-102.016-204.544c12.288-2.24 24.96-3.456 38.016-3.456z" fill="#51535F" /></svg>