<?xml version="1.0" standalone="no"?><!DOCTYPE svg PUBLIC "-//W3C//DTD SVG 1.1//EN" "http://www.w3.org/Graphics/SVG/1.1/DTD/svg11.dtd"><svg class="icon" width="200px" height="200.00px" viewBox="0 0 1024 1024" version="1.1" xmlns="http://www.w3.org/2000/svg"><path d="M160 896V448H32L192 128h640l160 320h-128v448H160z m640-448H224v384h160v-128a128 128 0 1 1 256 0v128h160V448z m-288 192a64 64 0 0 0-63.84 59.2L448 704v128h128v-128a64 64 0 0 0-59.2-63.84L512 640z m280.448-448H231.52l-96 192h752.928l-96-192z" fill="#383F4A" /></svg>