<?xml version="1.0" standalone="no"?><!DOCTYPE svg PUBLIC "-//W3C//DTD SVG 1.1//EN" "http://www.w3.org/Graphics/SVG/1.1/DTD/svg11.dtd"><svg class="icon" width="200px" height="200.00px" viewBox="0 0 1024 1024" version="1.1" xmlns="http://www.w3.org/2000/svg"><path d="M832 64a96 96 0 0 1 96 96V768l-192 192H192a96 96 0 0 1-96-96v-704A96 96 0 0 1 192 64zM625.152 252.16L511.936 365.12 398.848 252.16 331.008 320 426.88 416H320V512h144v64H320v96h144V768h96v-96H704V576H560V512H704V416H596.864L692.992 320l-67.84-67.84z" fill="#51535F" /></svg>