<?xml version="1.0" standalone="no"?><!DOCTYPE svg PUBLIC "-//W3C//DTD SVG 1.1//EN" "http://www.w3.org/Graphics/SVG/1.1/DTD/svg11.dtd"><svg class="icon" width="200px" height="200.00px" viewBox="0 0 1024 1024" version="1.1" xmlns="http://www.w3.org/2000/svg"><path d="M512 128v64C335.264 192 192 335.264 192 512s143.264 320 320 320c173.76 0 315.136-138.464 319.872-311.04L832 512h64c0 212.064-171.936 384-384 384S128 724.064 128 512C128 303.2 294.688 133.312 502.24 128.128L512 128z m100.512 0.32l247.776 35.392 35.392 247.776-63.36 9.024-22.976-160.608-306.72 306.72-45.248-45.248 306.72-306.784-160.64-22.912 9.056-63.36z" fill="#383F4A" /></svg>