<?xml version="1.0" standalone="no"?><!DOCTYPE svg PUBLIC "-//W3C//DTD SVG 1.1//EN" "http://www.w3.org/Graphics/SVG/1.1/DTD/svg11.dtd"><svg class="icon" width="200px" height="200.00px" viewBox="0 0 1024 1024" version="1.1" xmlns="http://www.w3.org/2000/svg"><path d="M416 448v144.032l96 71.968 96-72V448h320v448H608v-224l-96 72-96-71.968V896H96V448h320z m-64 64H160v320h192V512z m512 0h-192v320h192V512zM256 128a160 160 0 1 1 0 320A160 160 0 0 1 256 128z m512 0a160 160 0 1 1 0 320 160 160 0 0 1 0-320zM256 192a96 96 0 1 0 0 192 96 96 0 0 0 0-192z m512 0a96 96 0 1 0 0 192 96 96 0 0 0 0-192z" fill="#383F4A" /></svg>