<?xml version="1.0" standalone="no"?><!DOCTYPE svg PUBLIC "-//W3C//DTD SVG 1.1//EN" "http://www.w3.org/Graphics/SVG/1.1/DTD/svg11.dtd"><svg class="icon" width="200px" height="200.00px" viewBox="0 0 1024 1024" version="1.1" xmlns="http://www.w3.org/2000/svg"><path d="M960 448v416a96 96 0 0 1-96 96h-704A96 96 0 0 1 64 864V448h896z m-313.856 99.84L495.36 698.752l-67.84-67.84L352 706.304l135.744 135.68 226.304-226.24-67.84-67.84zM64 256a96 96 0 0 1 96-96H256V64h96v96h320V64H768v96h96A96 96 0 0 1 960 256v128H64V256z" fill="#51535F" /></svg>