<?xml version="1.0" standalone="no"?><!DOCTYPE svg PUBLIC "-//W3C//DTD SVG 1.1//EN" "http://www.w3.org/Graphics/SVG/1.1/DTD/svg11.dtd"><svg class="icon" width="200px" height="200.00px" viewBox="0 0 1024 1024" version="1.1" xmlns="http://www.w3.org/2000/svg"><path d="M765.056 679.68C845.312 708.928 896 752 896 800c0 88.32-171.904 160-384 160s-384-71.68-384-160c0-48 50.688-91.008 130.944-120.32 34.816 41.536 76.352 84.032 124.608 127.488a191.872 191.872 0 0 0 256.832-0.064c48.128-43.392 89.6-85.76 124.352-127.232zM512 64c176.704 0 320 128 320 320 0 109.568-78.144 234.752-234.432 375.552a127.872 127.872 0 0 1-171.2 0.064C270.208 618.752 192 493.568 192 384c0-192 143.296-320 320-320z m0 192a128 128 0 1 0 0 256 128 128 0 0 0 0-256z" fill="#51535F" /></svg>