<?xml version="1.0" standalone="no"?><!DOCTYPE svg PUBLIC "-//W3C//DTD SVG 1.1//EN" "http://www.w3.org/Graphics/SVG/1.1/DTD/svg11.dtd"><svg class="icon" width="200px" height="200.00px" viewBox="0 0 1024 1024" version="1.1" xmlns="http://www.w3.org/2000/svg"><path d="M512 96c229.76 0 416 186.24 416 416s-186.24 416-416 416S96 741.76 96 512 282.24 96 512 96z m0 480a256.192 256.192 0 0 0-246.656 187.136A350.88 350.88 0 0 0 512 864c96.064 0 183.104-38.464 246.624-100.832l1.344 4.864A256.16 256.16 0 0 0 512 576z m0-416C317.6 160 160 317.6 160 512c0 71.488 21.312 138.016 57.92 193.536a320.96 320.96 0 0 1 183.552-173.92 160 160 0 1 1 221.12 0 320.96 320.96 0 0 1 183.456 173.92A350.272 350.272 0 0 0 864 512c0-194.4-157.6-352-352-352z m0 160a96 96 0 1 0 0 192 96 96 0 0 0 0-192z" fill="#383F4A" /></svg>