<?xml version="1.0" standalone="no"?><!DOCTYPE svg PUBLIC "-//W3C//DTD SVG 1.1//EN" "http://www.w3.org/Graphics/SVG/1.1/DTD/svg11.dtd"><svg class="icon" width="200px" height="200.00px" viewBox="0 0 1024 1024" version="1.1" xmlns="http://www.w3.org/2000/svg"><path d="M416 96a96 96 0 0 0 192 0h256v832h-256a96 96 0 0 0-192 0H160V96h256z m-50.656 64H224v704h141.344l0.544-1.28a160.064 160.064 0 0 1 139.2-94.56L512 768a160.032 160.032 0 0 1 146.112 94.72l0.576 1.28H800V160h-141.312l-0.576 1.28a160.064 160.064 0 0 1-139.2 94.56L512 256a160.032 160.032 0 0 1-146.112-94.72L365.344 160z m220.256 201.376l45.248 45.248L589.472 448H640v64h-96v32h96v64h-96v64h-64v-64h-96v-64h96v-32h-96v-64h50.944L393.6 406.624l45.248-45.248 73.376 73.344 73.376-73.344z" fill="#383F4A" /></svg>