<?xml version="1.0" encoding="utf-8"?>
<!-- Generator: Adobe Illustrator 27.0.0, SVG Export Plug-In . SVG Version: 6.00 Build 0)  -->
<svg version="1.1" id="图层_1" xmlns="http://www.w3.org/2000/svg" xmlns:xlink="http://www.w3.org/1999/xlink" x="0px" y="0px"
	 viewBox="0 0 159.3 162.8" style="enable-background:new 0 0 159.3 162.8;" xml:space="preserve">
<style type="text/css">
	.st0{fill-rule:evenodd;clip-rule:evenodd;fill:#0BAB8B;}
</style>
<path class="st0" d="M20.5,35.6c2.7-4.1,6.5-7.3,11-9.1c7.2-2.8,14.2-11.2,17.3-14s11.7-9.2,26-11.6c11.9-2.3,24.2-0.5,35,5
	c9.9,4.8,25.4,20.9,33.5,32.4c-6.6-3.7-10.4-11.7-20.2-8.3S98.6,45.9,90.8,48.4s-20.5,5.7-35-1.9S35.6,27.8,35.6,27.8
	c-2.9,0.7-5.7,2.1-8,4c-2.2,2.1-3.9,4.7-4.9,7.6L20.5,35.6z M40.1,25.1l0.5,2.2c3.6-0.5,2.5,0.1,12.8-2.5s21.3-8,28.7-10.2
	c11.2-3.3,15.1-3.6,21.5-2.3s5.5,1.2,12.5,3.4c-5.2-3.2-10.8-6.8-20.4-7.3s-21,2.8-32,8.8C56.2,20.9,48.3,23.6,40.1,25.1z"/>
<path class="st0" d="M151,56c2.3,4.3,3.3,9.2,2.8,14c-1,7.7,3.2,17.8,4.1,21.9s2.5,14.7-2.1,28.4c-3.6,11.5-11,21.5-21,28.4
	c-9,6.4-30.5,12.4-44.4,14.1c6.4-4.1,15.2-3.6,16.9-13.9s-2.5-29.1-1-37.1S111,91.1,124.6,82s26.1-8.9,26.1-8.9
	c0.7-2.9,0.8-6,0.2-8.9c-0.8-3-2.3-5.7-4.3-7.9L151,56L151,56z M151,78.3l-2.2-0.6c-1.2,3.4-1.3,2.1-3.8,12.4s-3,22.5-4.6,30.2
	c-2.4,11.4-4,15-8.1,20s-3.6,4.3-8.9,9.4c5.3-3.1,11.1-6.3,16.1-14.5s7.5-19.9,7.4-32.3C147,94.5,148.4,86.2,151,78.3L151,78.3z"/>
<path class="st0" d="M70.9,162.3c-4.9-0.2-9.5-1.9-13.4-4.8c-6-4.8-16.9-6.5-20.8-7.9s-13.8-5.4-23.2-16.5
	c-8-9.1-12.7-20.6-13.4-32.7c-0.9-11,5.2-32.5,11-45.3c0.2,7.6-4.8,14.9,3.1,21.6s26.1,13,32.2,18.4s15.3,14.8,16.1,31.1
	s-5.9,26.9-5.9,26.9c2.1,2.1,4.7,3.8,7.5,4.8c2.9,0.9,6,1,9,0.4L70.9,162.3L70.9,162.3z M51.9,150.7l1.6-1.6
	c-2.3-2.9-1.1-2.2-8.6-9.7s-17.7-14.3-23.4-19.6c-8.5-8-10.8-11.2-12.9-17.3S6.8,97.1,5.2,90c-0.1,6.2-0.4,12.8,4.1,21.3
	S22.3,128,33,134.4C40.1,138.9,46.5,144.4,51.9,150.7L51.9,150.7z"/>
</svg>
